# xmcd
#
# Track frame offsets: 
#        150
#        16958
#        34526
#        51386
#        69912
#        90359
#        106573
#        126906
#        145388
#        161197
#        175929
#        193281
#        207860
#        227173
#        270858
#
# Disc length: 4096 seconds
#
# Revision: 3
# Processed by: cddbd v1.5.2PL0 Copyright (c) Steve Scherf et al.
# Submitted via: ExactAudioCopy v0.95a5
#
DISCID=c80ffe0f
DTITLE=G. Love - Lemonade
DYEAR=2006
DGENRE=Alt. Rock, Blues-Rock
TTITLE0=Ride
TTITLE1=Ain't That Right
TTITLE2=Hot Cookin'
TTITLE3=Can't Go Back to Jersey
TTITLE4=Missing My Baby
TTITLE5=Holla!
TTITLE6=Banger [feat. Blackilicious and Lateef the Truth Speaker]
TTITLE7=Thanks and Praise [feat. Jasper]
TTITLE8=Let the Music Play [feat. Ben Harper and Marc Broussard]
TTITLE9=Free
TTITLE10=Beautiful [feat. Tristan Prettyman]
TTITLE11=Rainbow [feat. Jack Johnson]
TTITLE12=Breakin' Up
TTITLE13=Still Hangin' Around
TTITLE14=Data
EXTD=YEAR: 2006
EXTT0=
EXTT1=
EXTT2=
EXTT3=
EXTT4=
EXTT5=
EXTT6=
EXTT7=
EXTT8=
EXTT9=
EXTT10=
EXTT11=
EXTT12=
EXTT13=
EXTT14=
PLAYORDER=
